<svg width="512" height="512" viewBox="0 0 680 680" xmlns="http://www.w3.org/2000/svg">
  <rect x="40" y="40" width="600" height="600" rx="120" fill="#F5E8D6"/>
  <g transform="translate(109,109) scale(0.9)">
    <path fill="#D4956A" d="M426.806,131.499c0,0-42.704-92.518-64.056-88.963c-21.352,3.555-67.622,64.056-67.622,64.056H255.99h-39.138 c0,0-46.27-60.501-67.622-64.056c-21.352-3.555-64.056,88.963-64.056,88.963s-131.656,96.084-67.6,234.872 C63.823,466.593,199.066,469.564,255.99,469.564c56.946,0,192.168-2.971,238.437-103.194 C558.484,227.582,426.806,131.499,426.806,131.499z"/>
    <ellipse cx="158" cy="236" rx="51" ry="51" fill="white"/>
    <ellipse cx="354" cy="236" rx="51" ry="51" fill="white"/>
    <path fill="#D4956A" d="M158.145,266.731c11.802,0,21.352-13.543,21.352-30.256c0-16.702-9.55-30.245-21.352-30.245c-11.781,0-21.352,13.543-21.352,30.245C136.793,253.188,146.364,266.731,158.145,266.731z"/>
    <path fill="#D4956A" d="M353.878,266.731c11.781,0,21.352-13.543,21.352-30.256c0-16.702-9.571-30.245-21.352-30.245c-11.802,0-21.352,13.543-21.352,30.245C332.526,253.188,342.076,266.731,353.878,266.731z"/>
    <path fill="white" d="M329.055,400.098c-10.082,2.418-19.048,3.555-27.066,3.555c-10.634,0.011-19.683-2.032-27.138-5.786c-7.454-3.754-13.157-9.216-17.139-15.274c-0.658-1.011-1.032-2.074-1.606-3.107c-4.087,7.288-10.218,14.002-18.964,18.381c-7.454,3.754-16.504,5.786-27.128,5.786c-8.028-0.01-16.984-1.137-27.076-3.545c-4.87-1.167-7.882-6.067-6.714-10.937c1.167-4.879,6.067-7.892,10.946-6.724c8.966,2.158,16.546,3.054,22.844,3.054c8.361,0,14.429-1.564,18.954-3.848c4.525-2.293,7.673-5.327,10.165-9.06c4.974-7.381,6.746-18.151,6.694-27.639c0.011-5.4-0.511-10.134-1.022-13.626l-18.11-16.39c-3.712-3.357-4.973-8.653-3.17-13.324c1.804-4.671,6.287-7.757,11.291-7.757h42.36c4.9,0,9.31,2.951,11.187,7.475c1.866,4.514,0.834,9.727-2.627,13.188l-18.809,18.809c-0.406,3.253-0.771,7.163-0.771,11.604c-0.021,7.089,0.928,14.982,3.544,21.54c2.68,6.61,6.59,11.74,13.325,15.179c4.524,2.284,10.592,3.848,18.964,3.848c6.298,0,13.867-0.897,22.854-3.045c4.868-1.167,9.769,1.835,10.937,6.714C336.937,394.04,333.934,398.93,329.055,400.098z"/>
    <line x1="55" y1="320" x2="168" y2="328" stroke="white" stroke-width="9" stroke-linecap="round"/>
    <line x1="55" y1="348" x2="168" y2="344" stroke="white" stroke-width="9" stroke-linecap="round"/>
    <line x1="344" y1="328" x2="457" y2="320" stroke="white" stroke-width="9" stroke-linecap="round"/>
    <line x1="344" y1="344" x2="457" y2="348" stroke="white" stroke-width="9" stroke-linecap="round"/>
  </g>
</svg>
